name C:\Users\u0101727\Documents\MyRepositories\upper-imu-dc\Results\main_tracking\Case_41\FLX01_angularVelocities_bodyFrame.mot
datacolumns 4
datarows 141
range 2.01000000 3.41000000
endheader 
time	radius_imu_x	radius_imu_y	radius_imu_z	
          2.01000000	         -1.39279137	          0.17751549	          0.23214140	
          2.02000000	         -1.37448154	          0.20758604	          0.17192121	
          2.03000000	         -1.35429604	          0.23435065	          0.11513159	
          2.04000000	         -1.33234110	          0.25721318	          0.06204538	
          2.05000000	         -1.30878699	          0.27574619	          0.01285014	
          2.06000000	         -1.28386608	          0.28972209	         -0.03235397	
          2.07000000	         -1.25786969	          0.29914754	         -0.07355580	
          2.08000000	         -1.23114140	          0.30429148	         -0.11083493	
          2.09000000	         -1.20406472	          0.30569509	         -0.14436267	
          2.10000000	         -1.17704396	          0.30415345	         -0.17439937	
          2.11000000	         -1.15047863	          0.30066228	         -0.20128466	
          2.12000000	         -1.12473405	          0.29632970	         -0.22541902	
          2.13000000	         -1.10011325	          0.29226224	         -0.24723883	
          2.14000000	         -1.07683606	          0.28944390	         -0.26718949	
          2.15000000	         -1.05502995	          0.28863623	         -0.28570223	
          2.16000000	         -1.03473361	          0.29032442	         -0.30317737	
          2.17000000	         -1.01591036	          0.29471552	         -0.31997285	
          2.18000000	         -0.99846545	          0.30177427	         -0.33639476	
          2.19000000	         -0.98226299	          0.31127476	         -0.35268780	
          2.20000000	         -0.96713998	          0.32285102	         -0.36902584	
          2.21000000	         -0.95291788	          0.33604055	         -0.38550583	
          2.22000000	         -0.93941335	          0.35032671	         -0.40214886	
          2.23000000	         -0.92644910	          0.36518851	         -0.41891134	
          2.24000000	         -0.91386337	          0.38015664	         -0.43570535	
          2.25000000	         -0.90151511	          0.39486390	         -0.45242323	
          2.26000000	         -0.88928246	          0.40907696	         -0.46896004	
          2.27000000	         -0.87705515	          0.42270238	         -0.48522813	
          2.28000000	         -0.86472367	          0.43576581	         -0.50116119	
          2.29000000	         -0.85216970	          0.44836824	         -0.51670852	
          2.30000000	         -0.83926119	          0.46062799	         -0.53182294	
          2.31000000	         -0.82585431	          0.47261926	         -0.54644645	
          2.32000000	         -0.81180199	          0.48431892	         -0.56049777	
          2.33000000	         -0.79696789	          0.49557364	         -0.57386545	
          2.34000000	         -0.78124321	          0.50609866	         -0.58640943	
          2.35000000	         -0.76456302	          0.51551122	         -0.59797157	
          2.36000000	         -0.74691824	          0.52338865	         -0.60839292	
          2.37000000	         -0.72836108	          0.52933464	         -0.61753317	
          2.38000000	         -0.70900450	          0.53303972	         -0.62528720	
          2.39000000	         -0.68901749	          0.53432652	         -0.63159495	
          2.40000000	         -0.66861758	          0.53317206	         -0.63644253	
          2.41000000	         -0.64806106	          0.52970523	         -0.63985608	
          2.42000000	         -0.62763115	          0.52418377	         -0.64189158	
          2.43000000	         -0.60762440	          0.51695847	         -0.64262455	
          2.44000000	         -0.58833570	          0.50843065	         -0.64214205	
          2.45000000	         -0.57004286	          0.49900677	         -0.64053782	
          2.46000000	         -0.55299197	          0.48905398	         -0.63791024	
          2.47000000	         -0.53738430	          0.47886083	         -0.63436245	
          2.48000000	         -0.52336569	          0.46860954	         -0.63000372	
          2.49000000	         -0.51101947	          0.45836704	         -0.62495181	
          2.50000000	         -0.50036377	          0.44809918	         -0.61933585	
          2.51000000	         -0.49135409	          0.43770422	         -0.61329824	
          2.52000000	         -0.48389070	          0.42705560	         -0.60699360	
          2.53000000	         -0.47783035	          0.41604382	         -0.60058314	
          2.54000000	         -0.47300079	          0.40461054	         -0.59422475	
          2.55000000	         -0.46921622	          0.39277049	         -0.58806080	
          2.56000000	         -0.46629155	          0.38061913	         -0.58220645	
          2.57000000	         -0.46405385	          0.36832706	         -0.57674140	
          2.58000000	         -0.46235013	          0.35612422	         -0.57170718	
          2.59000000	         -0.46105196	          0.34427758	         -0.56711068	
          2.60000000	         -0.46005719	          0.33306418	         -0.56293294	
          2.61000000	         -0.45928983	          0.32274222	         -0.55914070	
          2.62000000	         -0.45869794	          0.31352328	         -0.55569751	
          2.63000000	         -0.45824920	          0.30554938	         -0.55257184	
          2.64000000	         -0.45792402	          0.29887859	         -0.54974104	
          2.65000000	         -0.45770674	          0.29348189	         -0.54719200	
          2.66000000	         -0.45757622	          0.28925150	         -0.54492024	
          2.67000000	         -0.45749760	          0.28601823	         -0.54292884	
          2.68000000	         -0.45741677	          0.28357253	         -0.54122788	
          2.69000000	         -0.45725900	          0.28168448	         -0.53983391	
          2.70000000	         -0.45693201	          0.28012047	         -0.53876934	
          2.71000000	         -0.45633268	          0.27865839	         -0.53806127	
          2.72000000	         -0.45535552	          0.27710276	         -0.53773940	
          2.73000000	         -0.45390079	          0.27529902	         -0.53783232	
          2.74000000	         -0.45188090	          0.27314259	         -0.53836115	
          2.75000000	         -0.44922446	          0.27057881	         -0.53933081	
          2.76000000	         -0.44587852	          0.26759375	         -0.54072075	
          2.77000000	         -0.44180906	          0.26420074	         -0.54247784	
          2.78000000	         -0.43700060	          0.26042820	         -0.54451332	
          2.79000000	         -0.43145516	          0.25631229	         -0.54670551	
          2.80000000	         -0.42519072	          0.25189476	         -0.54890722	
          2.81000000	         -0.41823824	          0.24722198	         -0.55095596	
          2.82000000	         -0.41063812	          0.24234350	         -0.55268612	
          2.83000000	         -0.40243681	          0.23730854	         -0.55394129	
          2.84000000	         -0.39368262	          0.23216245	         -0.55458494	
          2.85000000	         -0.38442084	          0.22694604	         -0.55450810	
          2.86000000	         -0.37468889	          0.22169781	         -0.55363307	
          2.87000000	         -0.36451227	          0.21645641	         -0.55191325	
          2.88000000	         -0.35390251	          0.21125967	         -0.54932959	
          2.89000000	         -0.34285786	          0.20613827	         -0.54588481	
          2.90000000	         -0.33136686	          0.20110650	         -0.54159641	
          2.91000000	         -0.31941411	          0.19615508	         -0.53648896	
          2.92000000	         -0.30698705	          0.19125084	         -0.53058646	
          2.93000000	         -0.29408268	          0.18634502	         -0.52390581	
          2.94000000	         -0.28071320	          0.18138791	         -0.51645245	
          2.95000000	         -0.26691063	          0.17634515	         -0.50821925	
          2.96000000	         -0.25272989	          0.17121101	         -0.49918919	
          2.97000000	         -0.23825022	          0.16601683	         -0.48934167	
          2.98000000	         -0.22357422	          0.16083450	         -0.47866142	
          2.99000000	         -0.20882430	          0.15577456	         -0.46714779	
          3.00000000	         -0.19413636	          0.15097615	         -0.45482196	
          3.01000000	         -0.17965126	          0.14658727	         -0.44172963	
          3.02000000	         -0.16550525	          0.14274027	         -0.42793892	
          3.03000000	         -0.15182073	          0.13953151	         -0.41353480	
          3.04000000	         -0.13869892	          0.13701288	         -0.39861264	
          3.05000000	         -0.12621513	          0.13519635	         -0.38327325	
          3.06000000	         -0.11441721	          0.13406776	         -0.36762021	
          3.07000000	         -0.10332676	          0.13360422	         -0.35175862	
          3.08000000	         -0.09294207	          0.13378955	         -0.33579340	
          3.09000000	         -0.08324177	          0.13462391	         -0.31982602	
          3.10000000	         -0.07418862	          0.13612418	         -0.30394979	
          3.11000000	         -0.06573353	          0.13831312	         -0.28824509	
          3.12000000	         -0.05782020	          0.14119851	         -0.27277604	
          3.13000000	         -0.05039076	          0.14474876	         -0.25758962	
          3.14000000	         -0.04339214	          0.14887403	         -0.24271722	
          3.15000000	         -0.03678238	          0.15342030	         -0.22817816	
          3.16000000	         -0.03053547	          0.15817933	         -0.21398416	
          3.17000000	         -0.02464341	          0.16291095	         -0.20014359	
          3.18000000	         -0.01911474	          0.16736918	         -0.18666444	
          3.19000000	         -0.01396992	          0.17132344	         -0.17355543	
          3.20000000	         -0.00923522	          0.17457254	         -0.16082521	
          3.21000000	         -0.00493688	          0.17695354	         -0.14847999	
          3.22000000	         -0.00109696	          0.17834711	         -0.13652035	
          3.23000000	          0.00226881	          0.17867885	         -0.12493790	
          3.24000000	          0.00515097	          0.17791615	         -0.11371256	
          3.25000000	          0.00754460	          0.17606242	         -0.10281120	
          3.26000000	          0.00944722	          0.17315172	         -0.09218831	
          3.27000000	          0.01085738	          0.16924644	         -0.08178892	
          3.28000000	          0.01177503	          0.16443812	         -0.07155346	
          3.29000000	          0.01220374	          0.15884919	         -0.06142382	
          3.30000000	          0.01215451	          0.15263317	         -0.05134965	
          3.31000000	          0.01164981	          0.14597146	         -0.04129391	
          3.32000000	          0.01072725	          0.13906549	         -0.03123669	
          3.33000000	          0.00944155	          0.13212403	         -0.02117685	
          3.34000000	          0.00786454	          0.12534754	         -0.01113191	
          3.35000000	          0.00608316	          0.11891384	         -0.00113731	
          3.36000000	          0.00419622	          0.11296873	          0.00875429	
          3.37000000	          0.00231072	          0.10762197	          0.01847349	
          3.38000000	          0.00053806	          0.10294674	          0.02793477	
          3.39000000	         -0.00100974	          0.09898019	          0.03703792	
          3.40000000	         -0.00222383	          0.09572359	          0.04567117	
          3.41000000	         -0.00300213	          0.09314303	          0.05371601	
